# xmcd
#
# Track frame offsets:
#	150
#	13465
#	24967
#	38725
#	51055
#	67502
#	80540
#	94445
#	105190
#	119787
#	136590
#	154607
#	170062
#	187477
#
# Disc length: 2763 seconds
#
# Revision: 1
# Processed by: cddbd v1.5.1PL2 Copyright (c) Steve Scherf et al.
# Submitted via: EasyCDDAExtractor 5.0.6
#
DISCID=b50ac90e
DTITLE=Sergio Denis - 25 Años de Éxito (Disco 1)
DYEAR=1995
DGENRE=ballad
TTITLE0=Te llamo para despedirme
TTITLE1=Fui un soñador
TTITLE2=Pidiendo amor
TTITLE3=Aún estoy arrepentido
TTITLE4=Soy un pobre aventurero
TTITLE5=Ríe conmigo ahora
TTITLE6=Fue más fuerte que yo
TTITLE7=Y el sol también
TTITLE8=Cuando salga el sol
TTITLE9=Me enamoré sin darme cuenta
TTITLE10=Pasaron los años y no te olvidé
TTITLE11=Por favor no te encariñes conmigo
TTITLE12=Te quiero
TTITLE13=Tantos deseos de ti
EXTD=
EXTT0=
EXTT1=
EXTT2=
EXTT3=
EXTT4=
EXTT5=
EXTT6=
EXTT7=
EXTT8=
EXTT9=
EXTT10=
EXTT11=
EXTT12=
EXTT13=
PLAYORDER=
